<?xml version="1.0" encoding="UTF-8"?>
<svg id="SVGDoc" width="60" height="48" xmlns="http://www.w3.org/2000/svg" version="1.1" xmlns:xlink="http://www.w3.org/1999/xlink" xmlns:avocode="https://avocode.com/" viewBox="0 0 60 48"><defs></defs><desc>Generated with Avocode.</desc><g><g><title>&amp;lt;Path&amp;gt;</title><path d="M59.1436,40.0531c0.088,0.242 -0.038,0.51 -0.28,0.598l-8.936,3.227c-0.116,0.042 -0.244,0.036 -0.356,-0.016c-0.113,-0.053 -0.199,-0.148 -0.241,-0.264l-4.281,-11.853v15.779c0,0.258 -0.208,0.466 -0.466,0.466h-29.631c-0.257,0 -0.466,-0.208 -0.466,-0.466v-15.897l-3.462,9.586h-0.001l-0.85,2.355c-0.042,0.116 -0.128,0.211 -0.24,0.263c-0.112,0.053 -0.241,0.059 -0.356,0.016l-8.936,-3.227c-0.242,-0.087 -0.368,-0.355 -0.281,-0.597l14.105,-39.052c0.042,-0.117 0.129,-0.212 0.241,-0.264c0.071,-0.033 0.146,-0.047 0.222,-0.044h29.655c0.184,0 0.342,0.106 0.419,0.26c0.014,0.025 0.026,0.051 0.036,0.078l13.194,36.529c0.041,0.044 0.074,0.098 0.096,0.158c0.021,0.06 0.03,0.122 0.026,0.181zM28.1826,3.1191h3.139v-1.523h-3.139zM20.5186,1.5961c0.241,3.94 3.524,7.073 7.524,7.073h3.419c4.001,0 7.284,-3.133 7.525,-7.073h-6.732v1.99c0,0.257 -0.208,0.466 -0.466,0.466h-4.072c-0.258,0 -0.466,-0.209 -0.466,-0.466v-1.99zM9.9886,41.3371l-8.065,-2.894l-0.526,1.458l8.058,2.911zM15.4196,47.0581h12.157v-35.35c0,-0.257 0.209,-0.467 0.466,-0.467h5.467v-1.639h-5.467c-4.514,0 -8.215,-3.551 -8.458,-8.006h-4.352l-12.992,35.969l8.064,2.894l4.198,-11.622l1.408,-16.13c0.023,-0.256 0.249,-0.447 0.506,-0.424c0.256,0.023 0.446,0.249 0.424,0.505l-1.416,16.216c-0.001,0.009 -0.004,0.018 -0.005,0.027zM28.5096,47.0581h2.486v-34.883h-2.486zM49.1936,40.4711l8.064,-2.894l-12.996,-35.981h-4.341c-0.188,3.422 -2.415,6.309 -5.486,7.463c0.005,0.025 0.008,0.051 0.008,0.076v2.573c0,0.258 -0.209,0.467 -0.466,0.467h-2.048v34.883h12.188v-17.915c-0.018,-0.044 -0.032,-0.09 -0.036,-0.139l-1.416,-16.216c-0.023,-0.256 0.168,-0.482 0.424,-0.505c0.259,-0.023 0.483,0.168 0.505,0.424l1.413,16.183c0.005,0.011 0.011,0.02 0.015,0.032zM58.1076,39.9311l-0.533,-1.477l-8.064,2.895l0.539,1.493z" fill="#665822" fill-opacity="1"></path></g><g><title>&amp;lt;Path&amp;gt;</title><path d="M24.5648,34.3059c-0.182,-0.181 -0.477,-0.181 -0.659,0l-6.419,6.419c-0.183,0.183 -0.183,0.478 0,0.661c0.091,0.09 0.21,0.136 0.329,0.136c0.119,0 0.239,-0.046 0.33,-0.136l6.419,-6.42c0.182,-0.182 0.182,-0.477 0,-0.66z" fill="#665822" fill-opacity="1"></path></g><g><title>&amp;lt;Path&amp;gt;</title><path d="M35.5992,34.3059c-0.182,-0.181 -0.477,-0.181 -0.659,0c-0.183,0.183 -0.183,0.478 0,0.66l6.419,6.42c0.091,0.09 0.211,0.136 0.33,0.136c0.119,0 0.239,-0.046 0.33,-0.136c0.182,-0.183 0.182,-0.478 0,-0.661z" fill="#665822" fill-opacity="1"></path></g><g><title>&amp;lt;Path&amp;gt;</title><path d="M32.4163,11.0883c0.369,0 0.667,-0.298 0.667,-0.666c0,-0.369 -0.298,-0.668 -0.667,-0.668c-0.367,0 -0.667,0.299 -0.667,0.668c0,0.368 0.3,0.666 0.667,0.666z" fill="#665822" fill-opacity="1"></path></g></g></svg>