<svg width="12" height="24" viewBox="0 0 12 24" fill="none" xmlns="http://www.w3.org/2000/svg">
<path d="M9.26172 16.3763C9.26172 15.6575 9.0013 15.0534 8.49089 14.5638C7.99089 14.0638 7.14193 13.6211 5.94922 13.2304C4.28255 12.72 3.0638 12.0586 2.30339 11.2513C1.53776 10.4336 1.15755 9.39191 1.15755 8.12628C1.15755 6.85024 1.53255 5.80337 2.28255 4.98045C3.03255 4.16274 4.05859 3.66795 5.36589 3.50128V0.938782H7.11589V3.52212C8.41797 3.70441 9.43359 4.2617 10.1576 5.18878C10.8919 6.10545 11.2617 7.36586 11.2617 8.95962H9.11589C9.11589 7.86586 8.85026 6.99086 8.32422 6.33462C7.79297 5.68357 7.08464 5.35545 6.19922 5.35545C5.26693 5.35545 4.55339 5.60024 4.05339 6.08462C3.5638 6.55857 3.32422 7.22524 3.32422 8.08462C3.32422 8.89191 3.57943 9.53253 4.09505 10.0013C4.62109 10.4752 5.48047 10.9075 6.67839 11.2929C7.87109 11.6679 8.80339 12.095 9.47005 12.5638C10.1367 13.0221 10.6263 13.5638 10.9492 14.1888C11.2669 14.8034 11.4284 15.5221 11.4284 16.3554C11.4284 17.6784 11.0221 18.7409 10.2201 19.5429C9.42839 20.3502 8.3138 20.8242 6.88672 20.9804V23.2096H5.15755V20.9804C3.70964 20.8398 2.57422 20.3242 1.74089 19.4179C0.917969 18.5169 0.511719 17.2929 0.511719 15.7513H2.67839C2.67839 16.8346 2.95964 17.6679 3.53255 18.2513C4.10026 18.8346 4.90755 19.1263 5.94922 19.1263C6.97526 19.1263 7.78255 18.8867 8.36589 18.3971C8.95964 17.8971 9.26172 17.2252 9.26172 16.3763Z" fill="#333333"/>
</svg>
