<?xml version="1.0" encoding="UTF-8"?>
<svg id="SVGDoc" width="64" height="41" xmlns="http://www.w3.org/2000/svg" version="1.1" xmlns:xlink="http://www.w3.org/1999/xlink" xmlns:avocode="https://avocode.com/" viewBox="0 0 64 41"><defs></defs><desc>Generated with Avocode.</desc><g><g><title>&amp;lt;Path&amp;gt;</title><path d="M63.1626,28.1699c0.058,0.093 0.077,0.206 0.052,0.313c-0.025,0.107 -0.092,0.199 -0.185,0.258l-6.514,4.043c-0.195,0.121 -0.45,0.061 -0.571,-0.134l-10.094,-16.262v23.694c0,0.229 -0.186,0.415 -0.415,0.415h-27.354c-0.229,0 -0.414,-0.186 -0.414,-0.415v-23.591l-10.031,16.159c-0.12,0.195 -0.376,0.255 -0.571,0.134l-6.514,-4.043c-0.093,-0.058 -0.16,-0.151 -0.184,-0.258c-0.026,-0.107 -0.007,-0.22 0.051,-0.313l17.266,-27.817c0.082,-0.134 0.227,-0.205 0.375,-0.196c0.007,0 0.015,-0.001 0.022,-0.001h27.354c0.019,0 0.037,0.002 0.055,0.004c0.156,-0.02 0.318,0.049 0.406,0.193zM37.1986,9.0279c-0.029,-0.168 0.048,-0.336 0.193,-0.424l5.906,-3.589l-4.077,-3.769l-3.737,7.267c-0.011,0.029 -0.026,0.058 -0.044,0.085l-0.897,1.744v10.52l3.67,-5.911zM33.7136,10.2409c0,-0.065 0.016,-0.13 0.046,-0.189l0.197,-0.382c-0.669,0.315 -1.405,0.481 -2.166,0.481c-0.761,0 -1.497,-0.166 -2.166,-0.481l0.197,0.382c0.03,0.059 0.046,0.124 0.046,0.189v29.427h3.846zM26.1896,8.6039c0.146,0.088 0.222,0.256 0.194,0.424l-1.015,5.923l3.67,5.911v-10.52l-0.897,-1.744c-0.019,-0.027 -0.033,-0.056 -0.044,-0.085l-3.737,-7.267l-4.078,3.769zM38.4226,0.9849h-4.49v1.786c0,0.23 -0.185,0.416 -0.414,0.416h-3.456c-0.229,0 -0.414,-0.186 -0.414,-0.416v-1.786h-4.49l3.67,7.137c0.799,0.774 1.848,1.201 2.962,1.201c1.114,0 2.162,-0.427 2.962,-1.201zM33.1046,0.9849h-2.627v1.372h2.627zM18.4966,39.6679h10.542v-17.234l-4.457,-7.179c-0.053,-0.086 -0.073,-0.189 -0.056,-0.289l0.993,-5.8l-6.135,-3.728c-0.111,-0.067 -0.185,-0.183 -0.198,-0.313c-0.012,-0.129 0.035,-0.257 0.131,-0.345l4.104,-3.795h-5.154l-16.925,27.27l5.81,3.606l10.516,-16.942v-5.368c0,-0.229 0.185,-0.415 0.414,-0.415c0.229,0 0.415,0.186 0.415,0.415zM62.2406,28.2549l-16.89,-27.21c-0.04,-0.009 -0.079,-0.023 -0.116,-0.044c-0.009,-0.005 -0.018,-0.01 -0.026,-0.016h-5.048l4.104,3.795c0.095,0.088 0.144,0.216 0.131,0.345c-0.013,0.13 -0.086,0.246 -0.197,0.313l-6.136,3.728l0.993,5.8c0.017,0.1 -0.003,0.203 -0.056,0.289l-4.457,7.179v17.234h10.479v-24.734c0,-0.008 0.001,-0.015 0.002,-0.023v-5.36c0,-0.229 0.185,-0.415 0.414,-0.415c0.229,0 0.415,0.186 0.415,0.415v5.268l10.578,17.042z" fill="#665822" fill-opacity="1"></path></g><g><title>&amp;lt;Path&amp;gt;</title><path d="M26.6924,29.3112c0.163,0.161 0.163,0.424 0.001,0.586l-5,4.999c-0.078,0.077 -0.183,0.121 -0.293,0.121c-0.11,0 -0.216,-0.044 -0.293,-0.121l-1.533,-1.533c-0.162,-0.162 -0.162,-0.425 0,-0.586l4.999,-5c0.155,-0.156 0.43,-0.156 0.586,0zM25.8134,29.6032l-0.947,-0.947l-4.414,4.413l0.948,0.948z" fill="#665822" fill-opacity="1"></path></g><g><title>&amp;lt;Path&amp;gt;</title><path d="M44.0078,32.7772c0.161,0.161 0.161,0.424 0,0.586l-1.534,1.533c-0.078,0.077 -0.183,0.121 -0.293,0.121c-0.11,0 -0.215,-0.044 -0.293,-0.121l-5,-4.999c-0.161,-0.162 -0.161,-0.425 0,-0.586l1.534,-1.534c0.155,-0.156 0.431,-0.156 0.586,0zM43.1288,33.0692l-4.414,-4.413l-0.947,0.947l4.413,4.414z" fill="#665822" fill-opacity="1"></path></g></g></svg>