<?xml version="1.0" encoding="UTF-8"?>
<svg id="SVGDoc" width="34" height="51" xmlns="http://www.w3.org/2000/svg" version="1.1" xmlns:xlink="http://www.w3.org/1999/xlink" xmlns:avocode="https://avocode.com/" viewBox="0 0 34 51"><defs></defs><desc>Generated with Avocode.</desc><g><g><title>&amp;lt;Path&amp;gt;</title><path d="M33.094,0.507c0.262,0 0.473,0.212 0.473,0.474v48.69c0,0.262 -0.211,0.475 -0.473,0.475h-12.984c-0.261,0 -0.473,-0.213 -0.473,-0.475v-3.915c-0.011,-0.038 -0.018,-0.079 -0.018,-0.121l-0.021,-32.504c0,-1.372 -1.116,-2.488 -2.488,-2.488c-1.372,0 -2.488,1.116 -2.488,2.488l-0.021,32.504c0,0.041 -0.007,0.082 -0.017,0.121v3.915c0,0.262 -0.212,0.475 -0.473,0.475h-12.985c-0.261,0 -0.474,-0.213 -0.474,-0.475v-48.69c0,-0.262 0.213,-0.474 0.474,-0.474zM32.621,23.781h-3.624v1.71h3.624zM28.997,33.065h3.624v-6.627h-3.624zM32.621,5.83h-2.344c0.201,1.198 1.146,2.143 2.344,2.344zM32.621,1.455h-3.623v3.429h3.623zM28.05,1.455h-1.157v3.944h1.157zM8.274,4.884h17.673v-3.429h-17.673zM7.327,1.455h-1.157v3.944h1.157zM5.224,1.455h-3.624v3.429h3.624zM1.599,33.065h3.624v-6.627h-3.624zM5.224,23.781h-3.624v1.71h3.624zM1.599,8.174c1.198,-0.201 2.143,-1.146 2.344,-2.344h-2.344zM17.11,9.696c1.894,0 3.434,1.541 3.434,3.435l0.021,32.03h12.056v-11.15h-4.098c-0.261,0 -0.473,-0.212 -0.473,-0.473v-10.23c0,-0.262 0.212,-0.473 0.473,-0.473h4.098v-13.702c-1.721,-0.214 -3.088,-1.582 -3.302,-3.303h-0.322v0.042c0,0.262 -0.212,0.474 -0.474,0.474h-2.104c-0.261,0 -0.472,-0.212 -0.472,-0.474v-0.042h-17.673v0.042c0,0.262 -0.212,0.474 -0.473,0.474h-2.104c-0.262,0 -0.473,-0.212 -0.473,-0.474v-0.042h-0.322c-0.215,1.721 -1.581,3.089 -3.303,3.303v13.702h4.098c0.261,0 0.473,0.211 0.473,0.473v10.23c0,0.261 -0.212,0.473 -0.473,0.473h-4.098v11.15h12.056l0.021,-32.031c0,-1.893 1.541,-3.434 3.434,-3.434zM13.637,46.109h-12.038v3.09h12.038zM32.621,46.109h-12.038v3.09h12.038z" fill="#665822" fill-opacity="1"></path></g><g><title>&amp;lt;Path&amp;gt;</title><path d="M17.1103,1.551c0.885,0 1.604,0.72 1.604,1.604c0,0.885 -0.719,1.604 -1.604,1.604c-0.885,0 -1.604,-0.719 -1.604,-1.604c0,-0.884 0.719,-1.604 1.604,-1.604zM17.1103,3.812c0.362,0 0.657,-0.294 0.657,-0.657c0,-0.363 -0.295,-0.657 -0.657,-0.657c-0.362,0 -0.658,0.294 -0.658,0.657c0,0.363 0.296,0.657 0.658,0.657z" fill="#665822" fill-opacity="1"></path></g></g></svg>