<?xml version="1.0" encoding="UTF-8"?>
<svg id="SVGDoc" width="28" height="62" xmlns="http://www.w3.org/2000/svg" version="1.1" xmlns:xlink="http://www.w3.org/1999/xlink" xmlns:avocode="https://avocode.com/" viewBox="0 0 28 62"><defs></defs><desc>Generated with Avocode.</desc><g><g><title>&amp;lt;Path&amp;gt;</title><path d="M27.26,57.13c0.256,0 0.466,0.209 0.466,0.466v3.676c0,0.257 -0.21,0.467 -0.466,0.467h-11.869c-0.257,0 -0.466,-0.21 -0.466,-0.467v-3.676c0,-0.257 0.209,-0.466 0.466,-0.466h0.367l-0.027,-11.124c0,-0.807 -0.716,-1.464 -1.598,-1.464c-0.881,0 -1.598,0.656 -1.598,1.463l-0.027,11.125h0.367c0.257,0 0.466,0.209 0.466,0.466v3.676c0,0.257 -0.209,0.467 -0.466,0.467h-11.868c-0.257,0 -0.466,-0.21 -0.466,-0.467v-3.676c0,-0.257 0.209,-0.466 0.466,-0.466h0.372l0.001,-18.626l2.025,-22.166v-14.958c0,-0.257 0.209,-0.466 0.466,-0.466h2.752c0.257,0 0.466,0.209 0.466,0.466v14.502h14.088v-14.502c0,-0.257 0.209,-0.466 0.466,-0.466h2.752c0.257,0 0.466,0.209 0.466,0.466v14.966l2.024,22.116c0.003,0.021 0.005,0.047 0.005,0.074l-0.003,0.03v18.564zM4.649,11.146c0.147,-0.186 0.366,-0.292 0.598,-0.292c0.232,0 0.451,0.106 0.599,0.292l0.007,0.009h0.304v-1.825h-1.82v1.825h0.304zM4.337,8.398h1.82v-6.552h-1.82zM5.846,12.097c-0.148,0.186 -0.367,0.292 -0.599,0.292c-0.232,0 -0.451,-0.106 -0.598,-0.292l-0.008,-0.01h-0.304v3.795h1.82v-3.795h-0.304zM22.42,11.146c0.149,-0.186 0.367,-0.292 0.599,-0.292c0.233,0 0.45,0.106 0.598,0.292l0.008,0.009h0.304v-1.825h-1.82v1.825h0.304zM22.109,8.398h1.819v-6.552h-1.819zM23.617,12.097c-0.147,0.186 -0.365,0.292 -0.598,0.292c-0.232,0 -0.45,-0.106 -0.599,-0.292l-0.007,-0.01h-0.304v3.795h1.82v-3.795h-0.304zM21.603,36.348c0.257,0 0.466,0.21 0.466,0.466v1.255h3.863l-1.982,-21.255h-19.634l-1.982,21.255h3.863v-1.255c0,-0.256 0.21,-0.466 0.467,-0.466h1.584c0.257,0 0.466,0.21 0.466,0.466v1.255h10.838v-1.255c0,-0.256 0.21,-0.466 0.466,-0.466zM4.822,39.001h-2.511v2.511l0.03,-0.005c1.27,-0.211 2.265,-1.206 2.476,-2.477zM7.13,39.79h0.652v-2.509h-0.652zM11.602,46.003c0,-1.319 1.136,-2.392 2.531,-2.392c1.396,0 2.531,1.074 2.531,2.394l0.027,11.125h9.264v-14.675l-0.022,-0.003c-1.797,-0.222 -3.207,-1.632 -3.43,-3.428l-0.002,-0.023h-0.432v1.254c0,0.258 -0.209,0.467 -0.466,0.467h-1.585c-0.256,0 -0.466,-0.209 -0.466,-0.467v-1.254h-10.838v1.254c0,0.258 -0.209,0.467 -0.466,0.467h-1.584c-0.257,0 -0.467,-0.209 -0.467,-0.467v-1.254h-0.431l-0.003,0.023c-0.223,1.796 -1.633,3.206 -3.429,3.428l-0.023,0.003v14.675h9.265zM20.485,39.79h0.652v-2.509h-0.652zM23.449,39.031c0.211,1.27 1.206,2.265 2.476,2.476l0.03,0.005v-2.511h-2.511zM12.409,58.062h-10.936v2.744h10.936zM26.793,58.062h-10.937v2.744h10.937z" fill="#665822" fill-opacity="1"></path></g><g><title>&amp;lt;Path&amp;gt;</title><path d="M23.038,31.476c0,0.257 -0.209,0.466 -0.466,0.466h-16.878c-0.257,0 -0.466,-0.209 -0.466,-0.466v-11.006c0,-0.257 0.209,-0.467 0.466,-0.467h16.878c0.257,0 0.466,0.21 0.466,0.467zM6.16,31.01h8.899v-10.074h-8.899zM15.992,24.346h6.114v-3.41h-6.114zM15.992,31.01h6.114v-5.732h-6.114z" fill="#665822" fill-opacity="1"></path></g></g></svg>