<?xml version="1.0" encoding="UTF-8"?>
<svg id="SVGDoc" width="30" height="35" xmlns="http://www.w3.org/2000/svg" version="1.1" xmlns:xlink="http://www.w3.org/1999/xlink" xmlns:avocode="https://avocode.com/" viewBox="0 0 30 35"><defs></defs><desc>Generated with Avocode.</desc><g><g><title>&amp;lt;Path&amp;gt;</title><path d="M7.3032,0.5745c0.138,0 0.269,0.052 0.361,0.144c0.254,0.254 6.218,6.26 6.234,9.792c0.007,1.771 -0.392,3.49 -0.744,5.007c-0.265,1.144 -0.516,2.226 -0.522,3.076c-0.01,1.369 0.111,4.4 0.214,6.709c0.019,0.054 0.028,0.109 0.028,0.163c0,0.099 -0.003,0.196 -0.007,0.293c0.038,0.835 0.069,1.458 0.078,1.643l0.002,0.058c0.001,0.007 0.001,0.016 0.001,0.024c0,1.814 -0.503,3.453 -1.416,4.618c-1.015,1.293 -2.477,1.977 -4.229,1.977c-1.751,0 -3.214,-0.684 -4.228,-1.977c-0.913,-1.165 -1.416,-2.804 -1.416,-4.618v-0.022c0.002,-0.024 0.036,-0.714 0.081,-1.714c-0.005,-0.086 -0.007,-0.183 -0.007,-0.282c0,-0.054 0.009,-0.109 0.027,-0.163c0.104,-2.308 0.224,-5.338 0.215,-6.709c-0.006,-0.902 -0.28,-2.151 -0.569,-3.473c-0.347,-1.58 -0.704,-3.214 -0.697,-4.61c0.019,-3.53 5.98,-9.537 6.234,-9.792c0.092,-0.092 0.224,-0.144 0.36,-0.144zM7.3032,33.0595c3.412,0 4.302,-2.891 4.533,-4.361c-1.04,1.454 -2.733,2.338 -4.533,2.338c-1.799,0 -3.492,-0.884 -4.532,-2.338c0.231,1.47 1.121,4.361 4.532,4.361zM11.8462,25.7415c-0.091,-2.017 -0.244,-5.625 -0.233,-7.155c0.007,-0.963 0.27,-2.098 0.549,-3.3c0.244,-1.049 0.519,-2.236 0.645,-3.432l-5.504,-4.247l-5.483,4.232c0.124,0.977 0.356,2.037 0.581,3.063c0.301,1.376 0.586,2.676 0.593,3.684c0.011,1.529 -0.142,5.136 -0.234,7.155c0.144,2.399 2.138,4.277 4.543,4.277c2.405,0 4.399,-1.878 4.543,-4.277zM6.9922,6.5615c0.089,-0.068 0.199,-0.106 0.311,-0.106c0.112,0 0.223,0.038 0.312,0.106l5.264,4.061c0,-0.035 0,-0.071 0,-0.107c-0.011,-2.684 -4.464,-7.535 -5.576,-8.704c-1.11,1.17 -5.561,6.023 -5.575,8.704c0,0.036 0,0.072 0.001,0.107z" fill="#665822" fill-opacity="1"></path></g><g><title>&amp;lt;Path&amp;gt;</title><path d="M8.137,20.152c0.281,0 0.509,0.228 0.509,0.509v6.137c0,0.281 -0.228,0.51 -0.509,0.51h-1.667c-0.281,0 -0.509,-0.229 -0.509,-0.51v-6.137c0,-0.281 0.228,-0.509 0.509,-0.509zM7.627,21.17h-0.648v5.119h0.648z" fill="#665822" fill-opacity="1"></path></g><g><title>&amp;lt;Path&amp;gt;</title><path d="M29.3378,15.1205c-0.29,1.322 -0.563,2.571 -0.569,3.473c-0.01,1.369 0.111,4.4 0.214,6.709c0.019,0.054 0.028,0.109 0.028,0.163c0,0.099 -0.003,0.196 -0.008,0.293c0.046,0.989 0.08,1.679 0.082,1.699v0.026c0,1.814 -0.503,3.453 -1.417,4.618c-1.014,1.293 -2.476,1.977 -4.228,1.977c-1.752,0 -3.214,-0.684 -4.229,-1.977c-0.913,-1.165 -1.416,-2.804 -1.416,-4.618c0,-0.008 0,-0.017 0.001,-0.025c0.004,-0.076 0.037,-0.75 0.081,-1.711c-0.005,-0.085 -0.008,-0.183 -0.008,-0.282c0,-0.054 0.01,-0.109 0.028,-0.163c0.103,-2.309 0.224,-5.34 0.215,-6.709c-0.006,-0.851 -0.257,-1.932 -0.523,-3.076c-0.352,-1.517 -0.751,-3.238 -0.743,-5.007c0.015,-3.532 5.98,-9.538 6.234,-9.792c0.092,-0.092 0.223,-0.144 0.36,-0.144c0.137,0 0.268,0.052 0.36,0.144c0.254,0.255 6.216,6.262 6.234,9.792c0.007,1.396 -0.35,3.03 -0.696,4.61zM23.4398,33.0595c3.411,0 4.302,-2.891 4.533,-4.361c-1.041,1.454 -2.733,2.338 -4.533,2.338c-1.799,0 -3.492,-0.884 -4.533,-2.338c0.231,1.47 1.122,4.361 4.533,4.361zM27.9828,25.7415c-0.092,-2.019 -0.244,-5.626 -0.233,-7.155c0.007,-1.008 0.291,-2.308 0.593,-3.684c0.224,-1.026 0.456,-2.086 0.581,-3.063l-5.484,-4.232l-5.504,4.247c0.127,1.197 0.402,2.383 0.646,3.432c0.278,1.202 0.541,2.338 0.548,3.3c0.011,1.526 -0.141,5.135 -0.233,7.155c0.144,2.399 2.138,4.277 4.543,4.277c2.405,0 4.4,-1.878 4.543,-4.277zM23.1288,6.5615c0.177,-0.136 0.444,-0.136 0.622,0l5.264,4.061c0.001,-0.035 0.001,-0.071 0.001,-0.107c-0.014,-2.681 -4.465,-7.534 -5.576,-8.704c-1.112,1.169 -5.564,6.02 -5.575,8.704c-0.001,0.036 -0.001,0.072 0,0.107z" fill="#665822" fill-opacity="1"></path></g><g><title>&amp;lt;Path&amp;gt;</title><path d="M24.273,20.152c0.281,0 0.51,0.228 0.51,0.509v6.137c0,0.281 -0.229,0.51 -0.51,0.51h-1.666c-0.282,0 -0.51,-0.229 -0.51,-0.51v-6.137c0,-0.281 0.228,-0.509 0.51,-0.509zM23.763,21.17h-0.647v5.119h0.647z" fill="#665822" fill-opacity="1"></path></g></g></svg>