<?xml version="1.0" encoding="UTF-8"?>
<svg id="SVGDoc" width="13" height="65" xmlns="http://www.w3.org/2000/svg" version="1.1" xmlns:xlink="http://www.w3.org/1999/xlink" xmlns:avocode="https://avocode.com/" viewBox="0 0 13 65"><defs></defs><desc>Generated with Avocode.</desc><g><g><title>&amp;lt;Path&amp;gt;</title><path d="M10.4889,60.5426c0,2.132 -1.735,3.867 -3.867,3.867c-2.133,0 -3.867,-1.735 -3.867,-3.867v-3.146c0,-0.06 -0.048,-0.107 -0.107,-0.107h-0.232c-0.27,0 -0.489,-0.22 -0.489,-0.49c0,-0.27 0.219,-0.489 0.489,-0.489h0.232c0.059,0 0.107,-0.047 0.107,-0.107v-18.91c0,-0.034 0.001,-0.068 0.002,-0.103l0.001,-0.03c0.002,-0.032 -0.013,-0.064 -0.038,-0.086c-1.428,-1.175 -2.247,-2.906 -2.247,-4.748c0,-1.842 0.819,-3.573 2.247,-4.748c0.025,-0.021 0.039,-0.051 0.039,-0.083c0,-0.001 0,-0.002 -0.001,-0.004l-0.001,-0.029c-0.001,-0.034 -0.002,-0.069 -0.002,-0.103v-18.977c0,-0.058 -0.048,-0.106 -0.107,-0.106h-1.027c-0.269,0 -0.489,-0.22 -0.489,-0.49c0,-0.269 0.22,-0.489 0.489,-0.489h1.027c0.059,0 0.107,-0.048 0.107,-0.107v-3.08c0,-2.132 1.734,-3.867 3.867,-3.867c2.132,0 3.867,1.735 3.867,3.867v3.08c0,0.059 0.048,0.107 0.107,0.107h1.027c0.269,0 0.489,0.22 0.489,0.489c0,0.27 -0.22,0.49 -0.489,0.49h-1.027c-0.059,0 -0.107,0.048 -0.107,0.106v18.977c0,0.034 -0.001,0.069 -0.003,0.103l-0.001,0.029c-0.003,0.037 0.014,0.066 0.039,0.087c1.428,1.175 2.246,2.906 2.246,4.748c0,1.842 -0.818,3.572 -2.246,4.748c-0.025,0.022 -0.043,0.055 -0.039,0.086l0.001,0.03c0.002,0.035 0.003,0.069 0.003,0.103v18.91c0,0.06 0.048,0.107 0.107,0.107h0.232c0.27,0 0.489,0.219 0.489,0.489c0,0.27 -0.219,0.49 -0.489,0.49h-0.232c-0.059,0 -0.107,0.047 -0.107,0.107zM9.4039,7.2976c0.059,0 0.106,-0.048 0.106,-0.107v-3.08c0,-1.592 -1.295,-2.888 -2.888,-2.888c-1.593,0 -2.889,1.296 -2.889,2.888v3.08c0,0.059 0.048,0.107 0.107,0.107zM3.8869,26.8216c0.857,-0.427 1.777,-0.644 2.735,-0.644c0.957,0 1.878,0.217 2.735,0.644c0.032,0.016 0.072,0.014 0.103,-0.005c0.031,-0.019 0.05,-0.054 0.05,-0.091v-18.343c0,-0.058 -0.047,-0.106 -0.106,-0.106h-5.564c-0.059,0 -0.107,0.048 -0.107,0.106v18.343c0,0.037 0.02,0.072 0.051,0.091c0.031,0.019 0.07,0.021 0.103,0.005zM1.4519,32.3266c0,2.85 2.319,5.17 5.17,5.17c2.851,0 5.17,-2.32 5.17,-5.17c0,-2.851 -2.319,-5.17 -5.17,-5.17c-2.851,0 -5.17,2.319 -5.17,5.17zM9.4039,56.3106c0.059,0 0.106,-0.047 0.106,-0.107v-18.276c0,-0.037 -0.019,-0.072 -0.05,-0.091c-0.031,-0.019 -0.071,-0.021 -0.103,-0.005c-0.857,0.427 -1.777,0.644 -2.735,0.644c-0.958,0 -1.878,-0.217 -2.735,-0.644c-0.033,-0.016 -0.072,-0.014 -0.103,0.005c-0.031,0.019 -0.051,0.054 -0.051,0.091v18.276c0,0.06 0.048,0.107 0.107,0.107h2.185c0.059,0 0.108,-0.047 0.108,-0.107v-2.45c0,-0.27 0.219,-0.49 0.489,-0.49c0.27,0 0.489,0.22 0.489,0.49v2.45c0,0.06 0.048,0.107 0.107,0.107zM3.7329,60.5426c0,1.593 1.296,2.888 2.889,2.888c1.593,0 2.888,-1.295 2.888,-2.888v-3.146c0,-0.06 -0.047,-0.107 -0.106,-0.107h-5.564c-0.059,0 -0.107,0.047 -0.107,0.107z" fill="#665822" fill-opacity="1"></path></g><g><title>&amp;lt;Path&amp;gt;</title><path d="M7.277,11.3633c0,-0.361 -0.294,-0.655 -0.655,-0.655c-0.361,0 -0.655,0.294 -0.655,0.655c0,0.361 0.294,0.655 0.655,0.655c0.361,0 0.655,-0.294 0.655,-0.655z" fill="#665822" fill-opacity="1"></path></g><g><title>&amp;lt;Path&amp;gt;</title><path d="M7.277,14.9729c0,-0.361 -0.294,-0.655 -0.655,-0.655c-0.361,0 -0.655,0.294 -0.655,0.655c0,0.361 0.294,0.655 0.655,0.655c0.361,0 0.655,-0.294 0.655,-0.655z" fill="#665822" fill-opacity="1"></path></g><g><title>&amp;lt;Path&amp;gt;</title><path d="M7.2568,18.7438c0.089,-0.35 -0.124,-0.707 -0.474,-0.796c-0.35,-0.089 -0.707,0.124 -0.796,0.474c-0.089,0.35 0.124,0.707 0.474,0.796c0.35,0.089 0.708,-0.124 0.796,-0.474z" fill="#665822" fill-opacity="1"></path></g><g><title>&amp;lt;Path&amp;gt;</title><path d="M6.9668,33.1699c0.022,-0.022 0.043,-0.047 0.062,-0.076c0.003,-0.003 0.006,-0.009 0.008,-0.015l0.018,-0.032c0.006,-0.012 0.014,-0.023 0.018,-0.036c0.005,-0.01 0.007,-0.02 0.01,-0.029l0.012,-0.041c0.003,-0.008 0.005,-0.014 0.006,-0.021c0.007,-0.033 0.01,-0.066 0.01,-0.097v-3.377c0,-0.27 -0.219,-0.49 -0.489,-0.49c-0.27,0 -0.489,0.22 -0.489,0.49v3.131c0,0.028 -0.012,0.055 -0.032,0.075l-1.564,1.564c-0.092,0.092 -0.143,0.216 -0.143,0.346c0,0.131 0.051,0.254 0.143,0.346c0.093,0.093 0.216,0.144 0.346,0.144c0.131,0 0.254,-0.051 0.346,-0.144z" fill="#665822" fill-opacity="1"></path></g></g></svg>