<?xml version="1.0" encoding="UTF-8"?>
<svg id="SVGDoc" width="11" height="11" xmlns="http://www.w3.org/2000/svg" version="1.1" xmlns:xlink="http://www.w3.org/1999/xlink" xmlns:avocode="https://avocode.com/" viewBox="0 0 11 11"><defs></defs><desc>Generated with Avocode.</desc><g><g><title>&amp;lt;Path&amp;gt;</title><path d="M1.2559,0.5706v0l-0.963,0.963c-0.057,0.038 -0.085,0.09 -0.085,0.156c0,0.066 0.028,0.118 0.085,0.156l3.598,3.654v0l-3.57,3.57c-0.038,0.056 -0.057,0.113 -0.057,0.17c0,0.056 0.019,0.113 0.057,0.17l0.963,0.934c0.038,0.057 0.09,0.085 0.156,0.085c0.066,0 0.118,-0.028 0.156,-0.085l3.569,-3.541v0l3.598,3.655c0.038,0.038 0.09,0.056 0.156,0.056c0.066,0 0.118,-0.018 0.156,-0.056l0.963,-0.963c0.057,-0.038 0.085,-0.09 0.085,-0.156c0,-0.066 -0.019,-0.118 -0.057,-0.156l-3.626,-3.654v0l3.57,-3.57c0.056,-0.038 0.085,-0.089 0.085,-0.156c0,-0.066 -0.029,-0.117 -0.085,-0.156l-0.964,-0.963c-0.113,-0.113 -0.217,-0.113 -0.311,0l-3.57,3.541v0l-3.597,-3.654c-0.038,-0.038 -0.095,-0.057 -0.17,-0.057c-0.057,0 -0.104,0.019 -0.142,0.057z" fill="#000000" fill-opacity="1"></path></g></g></svg>