<svg style="display: none;" aria-hidden="true" xmlns="http://www.w3.org/2000/svg" xmlns:xlink="http://www.w3.org/1999/xlink"><symbol viewBox="0 0 133 54" fill="none" id="svg-logo-bee"><path d="M87.64 29.8646C87.64 28.1093 87.2754 26.7396 86.541 25.7656C85.8118 24.7396 84.8066 24.2239 83.541 24.2239C82.1712 24.2239 81.1191 24.7135 80.39 25.6927C79.6556 26.7187 79.291 28.1093 79.291 29.8646C79.291 31.9166 79.6296 33.4062 80.3171 34.3333C81.0462 35.3593 82.0723 35.875 83.3952 35.875C84.7598 35.875 85.8118 35.3593 86.541 34.3333C87.2754 33.3073 87.64 31.8177 87.64 29.8646ZM79.291 16.9739V22.8333C79.8275 21.9062 80.6087 21.151 81.6348 20.5625C82.515 20.0729 83.5879 19.8281 84.8587 19.8281C87.1556 19.8281 89.0306 20.7812 90.4993 22.6875C91.9629 24.5937 92.6973 27.0573 92.6973 30.0885C92.6973 33.1146 91.9629 35.5781 90.4993 37.4843C89.765 38.4114 88.7754 39.0833 87.5306 39.5C86.2858 39.9114 85.0514 40.1198 83.8327 40.1198C81.4889 40.1198 79.3118 39.5104 77.3118 38.2916C75.3066 37.0677 74.3066 34.7239 74.3066 31.2604V14.4843H76.8014C77.4837 14.4843 78.0671 14.7291 78.5566 15.2135C79.0462 15.7031 79.291 16.2916 79.291 16.9739ZM99.6504 28.0364H107.119C107.02 26.7135 106.682 25.7396 106.093 25.1041C105.458 24.4218 104.557 24.0781 103.385 24.0781C102.312 24.0781 101.432 24.4218 100.749 25.1041C100.062 25.7916 99.6973 26.7656 99.6504 28.0364ZM108.437 33.75H112.104C111.562 35.8021 110.536 37.3646 109.025 38.4375C107.51 39.5573 105.604 40.1198 103.312 40.1198C100.525 40.1198 98.3535 39.2187 96.791 37.4114C95.2285 35.651 94.4473 33.1406 94.4473 29.8646C94.4473 26.7396 95.2025 24.2968 96.7181 22.5416C98.2806 20.7343 100.452 19.8281 103.239 19.8281C106.171 19.8281 108.437 20.7083 110.051 22.4687C111.614 24.276 112.395 26.7916 112.395 30.0104V30.8177C112.395 31.0625 112.369 31.2343 112.322 31.3281H99.6504C99.6973 32.8437 100.062 33.9687 100.749 34.7031C101.38 35.4843 102.333 35.875 103.604 35.875C104.432 35.875 105.145 35.7031 105.729 35.3593C105.874 35.3125 106.01 35.2239 106.13 35.1041C106.255 34.9843 106.385 34.8489 106.536 34.7031C106.583 34.5521 106.765 34.3593 107.083 34.1146C107.4 33.8698 107.854 33.75 108.437 33.75ZM119.275 28.0364H126.744C126.65 26.7135 126.307 25.7396 125.723 25.1041C125.088 24.4218 124.182 24.0781 123.01 24.0781C121.937 24.0781 121.057 24.4218 120.374 25.1041C119.687 25.7916 119.322 26.7656 119.275 28.0364ZM128.062 33.75H131.729C131.187 35.8021 130.166 37.3646 128.65 38.4375C127.135 39.5573 125.234 40.1198 122.937 40.1198C120.156 40.1198 117.979 39.2187 116.416 37.4114C114.854 35.651 114.072 33.1406 114.072 29.8646C114.072 26.7396 114.833 24.2968 116.343 22.5416C117.906 20.7343 120.077 19.8281 122.864 19.8281C125.796 19.8281 128.062 20.7083 129.676 22.4687C131.239 24.276 132.02 26.7916 132.02 30.0104V30.8177C132.02 31.0625 131.994 31.2343 131.947 31.3281H119.275C119.322 32.8437 119.687 33.9687 120.374 34.7031C121.01 35.4843 121.958 35.875 123.229 35.875C124.062 35.875 124.77 35.7031 125.354 35.3593C125.499 35.3125 125.635 35.2239 125.76 35.1041C125.88 34.9843 126.015 34.8489 126.161 34.7031C126.208 34.5521 126.39 34.3593 126.708 34.1146C127.025 33.8698 127.479 33.75 128.062 33.75Z" fill="#665822"/><path d="M20.3483 36.4739C20.5462 37.4323 20.8796 38.3385 21.3223 39.1823H30.7389V36.4531H30.6764L20.3483 36.4739ZM20.1348 30.7552V33.4479L30.6764 33.4271H30.7441V30.7552H20.1348ZM20.1348 27.7291H30.7441V25.1614H20.1348V27.7291ZM20.3483 16.4218C21.5462 16.4218 26.1556 16.4166 30.7389 16.4114V8.04163C26.1296 8.01559 21.5046 10.8073 20.3483 16.4218ZM23.6816 42.2083C25.7077 44.0104 28.2285 44.901 30.7441 44.8854V42.2083H23.6816ZM20.1348 22.1354H30.7441V19.4375C25.4473 19.4427 20.1348 19.4479 20.1348 19.4479V22.1354Z" fill="#FAA61A"/><path d="M33.7285 14.3854C32.8848 13.5364 31.7546 13.0677 30.5566 13.0677C29.8327 13.0677 29.2441 12.4791 29.2441 11.7552C29.2441 11.026 29.8327 10.4375 30.5566 10.4375C32.4577 10.4375 34.2493 11.1771 35.5931 12.526C36.1035 13.0364 36.1035 13.8698 35.5931 14.3854C35.0775 14.8958 34.2441 14.901 33.7285 14.3854Z" fill="#fff"/><path d="M50.6882 33.4635L44.2559 33.4531V19.4479L50.6882 19.4583C54.5475 19.4583 57.6882 22.5989 57.6882 26.4583C57.6882 30.3229 54.5475 33.4635 50.6882 33.4635ZM41.2298 22.1354H20.1361V19.4479C20.1361 19.4479 40.5267 19.4323 41.2298 19.4271V22.1354ZM41.2298 27.7291H20.1309V25.1614H41.2298V27.7291ZM41.2298 33.4479L30.6777 33.4271L20.1361 33.4479V30.7552H41.2298V33.4479ZM40.0423 39.1823H21.3184C20.8809 38.3385 20.5475 37.4323 20.3496 36.4739L30.6777 36.4583L41.0111 36.4739C40.8132 37.4323 40.4798 38.3385 40.0423 39.1823ZM23.6829 42.2083H37.6829C33.6725 45.7812 27.6986 45.7864 23.6829 42.2083ZM41.0059 16.401C38.7246 16.4062 22.7454 16.4218 20.3496 16.4218C22.6465 5.25518 38.6934 5.24997 41.0059 16.401ZM17.1048 33.4531L10.6725 33.4635C6.81315 33.4635 3.67253 30.3229 3.67253 26.4635C3.67253 22.5989 6.81315 19.4583 10.6777 19.4583L17.1048 19.4531V33.4531ZM50.6934 16.4323L44.0736 16.4218C43.4902 12.7396 41.4277 9.54684 38.5111 7.47913L42.7715 3.21872C43.36 2.63017 43.36 1.67184 42.7715 1.07809C42.1777 0.48955 41.2194 0.48955 40.6309 1.07809L35.7454 5.96351C32.4069 4.61976 28.6465 4.62497 25.2402 6.12497L20.1986 1.07809C19.6048 0.48955 18.6465 0.48955 18.0579 1.07809C17.4642 1.67184 17.4642 2.63017 18.0579 3.21872L22.5475 7.7083C19.7923 9.78122 17.8548 12.875 17.2923 16.4271L10.6725 16.4323C5.14649 16.4323 0.646484 20.9323 0.646484 26.4635C0.646484 31.9896 5.14649 36.4896 10.6777 36.4896L17.2923 36.4791C18.2298 42.3489 22.9746 47.177 29.1673 47.8229V52.4531C29.1673 53.2916 29.8444 53.9687 30.6829 53.9687C31.5163 53.9687 32.1934 53.2916 32.1934 52.4531V47.8021C37.8236 47.1458 43.0215 43.0781 44.0736 36.4791L50.6882 36.4896C56.2142 36.4896 60.7142 31.9896 60.7194 26.4583C60.7142 20.9323 56.2142 16.4323 50.6934 16.4323Z" fill="#665822"/></symbol></svg>