<svg style="display: none;" aria-hidden="true" xmlns="http://www.w3.org/2000/svg" xmlns:xlink="http://www.w3.org/1999/xlink"><symbol viewBox="0 0 13 7" id="svg-arrow"><path d="M12.8223 0.833374L6.61393 6.16671L0.400391 0.833374H12.8223Z"/></symbol><symbol viewBox="0 0 60 48" id="svg-blouse"><path d="M59.1436,40.0531c0.088,0.242 -0.038,0.51 -0.28,0.598l-8.936,3.227c-0.116,0.042 -0.244,0.036 -0.356,-0.016c-0.113,-0.053 -0.199,-0.148 -0.241,-0.264l-4.281,-11.853v15.779c0,0.258 -0.208,0.466 -0.466,0.466h-29.631c-0.257,0 -0.466,-0.208 -0.466,-0.466v-15.897l-3.462,9.586h-0.001l-0.85,2.355c-0.042,0.116 -0.128,0.211 -0.24,0.263c-0.112,0.053 -0.241,0.059 -0.356,0.016l-8.936,-3.227c-0.242,-0.087 -0.368,-0.355 -0.281,-0.597l14.105,-39.052c0.042,-0.117 0.129,-0.212 0.241,-0.264c0.071,-0.033 0.146,-0.047 0.222,-0.044h29.655c0.184,0 0.342,0.106 0.419,0.26c0.014,0.025 0.026,0.051 0.036,0.078l13.194,36.529c0.041,0.044 0.074,0.098 0.096,0.158c0.021,0.06 0.03,0.122 0.026,0.181zM28.1826,3.1191h3.139v-1.523h-3.139zM20.5186,1.5961c0.241,3.94 3.524,7.073 7.524,7.073h3.419c4.001,0 7.284,-3.133 7.525,-7.073h-6.732v1.99c0,0.257 -0.208,0.466 -0.466,0.466h-4.072c-0.258,0 -0.466,-0.209 -0.466,-0.466v-1.99zM9.9886,41.3371l-8.065,-2.894l-0.526,1.458l8.058,2.911zM15.4196,47.0581h12.157v-35.35c0,-0.257 0.209,-0.467 0.466,-0.467h5.467v-1.639h-5.467c-4.514,0 -8.215,-3.551 -8.458,-8.006h-4.352l-12.992,35.969l8.064,2.894l4.198,-11.622l1.408,-16.13c0.023,-0.256 0.249,-0.447 0.506,-0.424c0.256,0.023 0.446,0.249 0.424,0.505l-1.416,16.216c-0.001,0.009 -0.004,0.018 -0.005,0.027zM28.5096,47.0581h2.486v-34.883h-2.486zM49.1936,40.4711l8.064,-2.894l-12.996,-35.981h-4.341c-0.188,3.422 -2.415,6.309 -5.486,7.463c0.005,0.025 0.008,0.051 0.008,0.076v2.573c0,0.258 -0.209,0.467 -0.466,0.467h-2.048v34.883h12.188v-17.915c-0.018,-0.044 -0.032,-0.09 -0.036,-0.139l-1.416,-16.216c-0.023,-0.256 0.168,-0.482 0.424,-0.505c0.259,-0.023 0.483,0.168 0.505,0.424l1.413,16.183c0.005,0.011 0.011,0.02 0.015,0.032zM58.1076,39.9311l-0.533,-1.477l-8.064,2.895l0.539,1.493z"/><path d="M24.5648,34.3059c-0.182,-0.181 -0.477,-0.181 -0.659,0l-6.419,6.419c-0.183,0.183 -0.183,0.478 0,0.661c0.091,0.09 0.21,0.136 0.329,0.136c0.119,0 0.239,-0.046 0.33,-0.136l6.419,-6.42c0.182,-0.182 0.182,-0.477 0,-0.66z"/><g><path d="M35.5992,34.3059c-0.182,-0.181 -0.477,-0.181 -0.659,0c-0.183,0.183 -0.183,0.478 0,0.66l6.419,6.42c0.091,0.09 0.211,0.136 0.33,0.136c0.119,0 0.239,-0.046 0.33,-0.136c0.182,-0.183 0.182,-0.478 0,-0.661z"/></g><g><path d="M32.4163,11.0883c0.369,0 0.667,-0.298 0.667,-0.666c0,-0.369 -0.298,-0.668 -0.667,-0.668c-0.367,0 -0.667,0.299 -0.667,0.668c0,0.368 0.3,0.666 0.667,0.666z"/></g></symbol><symbol viewBox="0 0 20 15" id="svg-check-mark"><path d="M17.8389,0.6158v0l1.896,1.968v0l-12.528,11.616v0l-0.096,-0.096v0l-2.616,-2.807v0l-3.864,-4.129v0l1.969,-1.776v0l4.584,5.088v0z"/></symbol><symbol viewBox="0 0 12 24" id="svg-dollar"><path d="M9.26172 16.3763C9.26172 15.6575 9.0013 15.0534 8.49089 14.5638C7.99089 14.0638 7.14193 13.6211 5.94922 13.2304C4.28255 12.72 3.0638 12.0586 2.30339 11.2513C1.53776 10.4336 1.15755 9.39191 1.15755 8.12628C1.15755 6.85024 1.53255 5.80337 2.28255 4.98045C3.03255 4.16274 4.05859 3.66795 5.36589 3.50128V0.938782H7.11589V3.52212C8.41797 3.70441 9.43359 4.2617 10.1576 5.18878C10.8919 6.10545 11.2617 7.36586 11.2617 8.95962H9.11589C9.11589 7.86586 8.85026 6.99086 8.32422 6.33462C7.79297 5.68357 7.08464 5.35545 6.19922 5.35545C5.26693 5.35545 4.55339 5.60024 4.05339 6.08462C3.5638 6.55857 3.32422 7.22524 3.32422 8.08462C3.32422 8.89191 3.57943 9.53253 4.09505 10.0013C4.62109 10.4752 5.48047 10.9075 6.67839 11.2929C7.87109 11.6679 8.80339 12.095 9.47005 12.5638C10.1367 13.0221 10.6263 13.5638 10.9492 14.1888C11.2669 14.8034 11.4284 15.5221 11.4284 16.3554C11.4284 17.6784 11.0221 18.7409 10.2201 19.5429C9.42839 20.3502 8.3138 20.8242 6.88672 20.9804V23.2096H5.15755V20.9804C3.70964 20.8398 2.57422 20.3242 1.74089 19.4179C0.917969 18.5169 0.511719 17.2929 0.511719 15.7513H2.67839C2.67839 16.8346 2.95964 17.6679 3.53255 18.2513C4.10026 18.8346 4.90755 19.1263 5.94922 19.1263C6.97526 19.1263 7.78255 18.8867 8.36589 18.3971C8.95964 17.8971 9.26172 17.2252 9.26172 16.3763Z"/></symbol><symbol viewBox="0 0 64 41" id="svg-jacket"><path d="M63.1626,28.1699c0.058,0.093 0.077,0.206 0.052,0.313c-0.025,0.107 -0.092,0.199 -0.185,0.258l-6.514,4.043c-0.195,0.121 -0.45,0.061 -0.571,-0.134l-10.094,-16.262v23.694c0,0.229 -0.186,0.415 -0.415,0.415h-27.354c-0.229,0 -0.414,-0.186 -0.414,-0.415v-23.591l-10.031,16.159c-0.12,0.195 -0.376,0.255 -0.571,0.134l-6.514,-4.043c-0.093,-0.058 -0.16,-0.151 -0.184,-0.258c-0.026,-0.107 -0.007,-0.22 0.051,-0.313l17.266,-27.817c0.082,-0.134 0.227,-0.205 0.375,-0.196c0.007,0 0.015,-0.001 0.022,-0.001h27.354c0.019,0 0.037,0.002 0.055,0.004c0.156,-0.02 0.318,0.049 0.406,0.193zM37.1986,9.0279c-0.029,-0.168 0.048,-0.336 0.193,-0.424l5.906,-3.589l-4.077,-3.769l-3.737,7.267c-0.011,0.029 -0.026,0.058 -0.044,0.085l-0.897,1.744v10.52l3.67,-5.911zM33.7136,10.2409c0,-0.065 0.016,-0.13 0.046,-0.189l0.197,-0.382c-0.669,0.315 -1.405,0.481 -2.166,0.481c-0.761,0 -1.497,-0.166 -2.166,-0.481l0.197,0.382c0.03,0.059 0.046,0.124 0.046,0.189v29.427h3.846zM26.1896,8.6039c0.146,0.088 0.222,0.256 0.194,0.424l-1.015,5.923l3.67,5.911v-10.52l-0.897,-1.744c-0.019,-0.027 -0.033,-0.056 -0.044,-0.085l-3.737,-7.267l-4.078,3.769zM38.4226,0.9849h-4.49v1.786c0,0.23 -0.185,0.416 -0.414,0.416h-3.456c-0.229,0 -0.414,-0.186 -0.414,-0.416v-1.786h-4.49l3.67,7.137c0.799,0.774 1.848,1.201 2.962,1.201c1.114,0 2.162,-0.427 2.962,-1.201zM33.1046,0.9849h-2.627v1.372h2.627zM18.4966,39.6679h10.542v-17.234l-4.457,-7.179c-0.053,-0.086 -0.073,-0.189 -0.056,-0.289l0.993,-5.8l-6.135,-3.728c-0.111,-0.067 -0.185,-0.183 -0.198,-0.313c-0.012,-0.129 0.035,-0.257 0.131,-0.345l4.104,-3.795h-5.154l-16.925,27.27l5.81,3.606l10.516,-16.942v-5.368c0,-0.229 0.185,-0.415 0.414,-0.415c0.229,0 0.415,0.186 0.415,0.415zM62.2406,28.2549l-16.89,-27.21c-0.04,-0.009 -0.079,-0.023 -0.116,-0.044c-0.009,-0.005 -0.018,-0.01 -0.026,-0.016h-5.048l4.104,3.795c0.095,0.088 0.144,0.216 0.131,0.345c-0.013,0.13 -0.086,0.246 -0.197,0.313l-6.136,3.728l0.993,5.8c0.017,0.1 -0.003,0.203 -0.056,0.289l-4.457,7.179v17.234h10.479v-24.734c0,-0.008 0.001,-0.015 0.002,-0.023v-5.36c0,-0.229 0.185,-0.415 0.414,-0.415c0.229,0 0.415,0.186 0.415,0.415v5.268l10.578,17.042z"/><path d="M26.6924,29.3112c0.163,0.161 0.163,0.424 0.001,0.586l-5,4.999c-0.078,0.077 -0.183,0.121 -0.293,0.121c-0.11,0 -0.216,-0.044 -0.293,-0.121l-1.533,-1.533c-0.162,-0.162 -0.162,-0.425 0,-0.586l4.999,-5c0.155,-0.156 0.43,-0.156 0.586,0zM25.8134,29.6032l-0.947,-0.947l-4.414,4.413l0.948,0.948z"/><g><path d="M44.0078,32.7772c0.161,0.161 0.161,0.424 0,0.586l-1.534,1.533c-0.078,0.077 -0.183,0.121 -0.293,0.121c-0.11,0 -0.215,-0.044 -0.293,-0.121l-5,-4.999c-0.161,-0.162 -0.161,-0.425 0,-0.586l1.534,-1.534c0.155,-0.156 0.431,-0.156 0.586,0zM43.1288,33.0692l-4.414,-4.413l-0.947,0.947l4.413,4.414z"/></g></symbol><symbol viewBox="0 0 123 40" id="svg-logo-sony"><path fill-rule="evenodd" clip-rule="evenodd" d="M120.422 21.1094C119.521 21.1094 118.792 20.3802 118.792 19.474C118.792 18.5729 119.521 17.8438 120.422 17.8438C121.318 17.8438 122.047 18.5729 122.047 19.474C122.047 20.3802 121.318 21.1094 120.422 21.1094ZM120.422 17.625C119.391 17.625 118.562 18.4531 118.562 19.474C118.562 20.5 119.391 21.3333 120.422 21.3333C121.443 21.3333 122.271 20.5 122.271 19.474C122.271 18.4531 121.443 17.625 120.422 17.625Z"/><path fill-rule="evenodd" clip-rule="evenodd" d="M120.375 19.3542H119.984V18.625H120.578C120.833 18.625 121.115 18.6615 121.115 18.9792C121.115 19.4063 120.667 19.3542 120.375 19.3542ZM121.375 18.9896C121.375 18.8125 121.297 18.6302 121.141 18.5417C120.984 18.448 120.807 18.4375 120.635 18.4375H119.734V20.5105H119.984V19.5573H120.448L121.042 20.5105H121.344L120.719 19.5573C121.083 19.5469 121.375 19.3959 121.375 18.9896ZM109.552 8.96879L113.344 4.91671C113.563 4.61983 113.672 4.4115 113.672 4.23442C113.672 3.93754 113.417 3.81775 112.615 3.81775H111.656V1.26046H122.01V3.81775H120.651C119.078 3.81775 118.786 4.05733 116.594 6.81775L110.594 13.2969V17.25C110.594 18.2605 111.104 18.6146 112.568 18.6146H114.833V21.0834H100.328V18.6146H102.594C104.057 18.6146 104.568 18.2605 104.568 17.25V13.2969L97.5 5.48442C96.3333 4.11462 96.4948 3.81775 93.2448 3.81775V1.26046H106.365V3.81775H105.427C104.479 3.81775 104.073 3.99483 104.073 4.35421C104.073 4.65108 104.37 4.88546 104.552 5.12504L108.125 9.02087C108.547 9.46358 109.068 9.52087 109.552 8.96879ZM21.5417 1.26046H24.7083V8.39587H21.7865C21.526 6.96879 20.6354 6.4115 19.8177 5.66671C18.3542 4.31775 15.1771 3.19275 12.5 3.19275C9.04688 3.19275 6.13542 4.26567 6.13542 5.83858C6.13542 10.2084 25.8698 6.72921 25.8698 14.9896C25.8698 19.3021 21.6458 21.7084 14.0521 21.7084C11.4271 21.7084 7.44792 20.8907 5.09896 19.6459C4.36458 19.2188 4.05208 20.0469 3.91667 21.0834H0.671875V13.7136H3.60417C4.25 15.5834 5.14583 15.9688 5.96354 16.7136C7.39063 18.0209 10.776 18.974 13.8802 18.9427C18.5625 18.8959 20.1771 17.875 20.1771 16.3855C20.1771 14.9011 18.5833 14.5469 13.4479 13.7448L9.09375 13.0313C4.17708 12.2865 0.59375 11.1875 0.59375 7.26567C0.59375 3.19275 5.125 0.635457 12.2865 0.635457C15.3021 0.635457 17.8281 1.04171 20.25 2.4115C20.9219 2.84379 21.5521 2.90108 21.5417 1.26046ZM83.2917 13.2032L83.3542 5.27608C83.3542 4.23442 82.8125 3.88025 81.2656 3.88025H79.4531V1.4115H91.0104V3.88025H89.5C87.9531 3.88025 87.4115 4.23442 87.4115 5.27608V21.2344L82.8906 21.198L68.2396 7.32817V17.4011C68.2396 18.4115 68.7812 18.7969 70.3281 18.7969H72.3385V21.2344H60.3385V18.7969H62.3229C63.8698 18.7969 64.4115 18.4115 64.4115 17.4011V5.27608C64.4115 4.23442 63.8698 3.88025 62.3229 3.88025H60.3385V1.4115H70.7135L83.2917 13.2032ZM44.3698 18.974C39.2708 18.974 36.3438 16.0313 36.3438 10.948C36.3438 5.98442 39.401 3.04171 44.625 3.04171C49.6354 3.04171 52.5677 6.04692 52.5677 11.1563C52.5677 16.1511 49.599 18.974 44.3698 18.974ZM44.5781 0.489624C35.3698 0.489624 29.6042 4.55733 29.6042 11.099C29.6042 17.5157 35.2917 21.5573 44.2969 21.5573C53.8698 21.5573 59.4375 17.5782 59.4375 10.7709C59.4375 4.65108 53.4271 0.489624 44.5781 0.489624Z"/><path d="M14.9323 29.3073C13.3958 29.3073 12.2031 30.0313 11.3958 31.4688C11.0781 30.875 10.6302 30.375 10.0677 29.9844C8.82813 29.1354 7.30729 29.0833 5.96875 29.8438C5.53125 30.0938 5.18229 30.3854 4.91667 30.7292V29.4792H4.04688V39.5417H4.91667V33.1406C4.91667 32.2917 5.20833 31.5677 5.78646 30.9896C6.35937 30.4115 7.07813 30.1198 7.92188 30.1198C8.75 30.1198 9.45833 30.4531 10.0938 31.1354C10.7188 31.8177 11.0417 32.599 11.0417 33.4583V39.5417H11.8906V33.4115C11.8906 32.4323 12.1771 31.625 12.7344 31.026C13.2865 30.4271 14.0313 30.1198 14.9427 30.1198C15.9115 30.1198 16.651 30.4531 17.2083 31.1406C17.7604 31.8281 18.0417 32.7708 18.0417 33.9479V39.5417H18.875V33.8854C18.875 32.4844 18.526 31.3594 17.8333 30.5469C17.1354 29.724 16.1563 29.3073 14.9323 29.3073ZM27.724 31.4219C28.5833 32.2813 29.0208 33.349 29.0208 34.599C29.0208 35.8021 28.5833 36.8438 27.7188 37.6875C26.8594 38.5365 25.8073 38.9635 24.599 38.9635C23.3802 38.9635 22.3333 38.5365 21.474 37.6823C20.6198 36.8385 20.1875 35.7917 20.1875 34.5781C20.1875 33.3698 20.6146 32.3125 21.4688 31.4427C22.3177 30.5729 23.3542 30.1302 24.5521 30.1302C25.7969 30.1302 26.8646 30.5677 27.724 31.4219ZM28.9948 31.7396C28.0104 30.1198 26.4896 29.2969 24.4688 29.2969C23.0885 29.2969 21.8698 29.8281 20.8542 30.8854C19.8333 31.9323 19.3125 33.1771 19.3125 34.5729C19.3125 36.0052 19.8542 37.25 20.9167 38.2656C21.9792 39.2865 23.276 39.7969 24.7708 39.7969C25.7292 39.7969 26.6458 39.5052 27.4948 38.9271C28.1094 38.5052 28.6042 37.9948 28.974 37.3906C28.9688 37.6094 28.9635 37.8438 28.9635 38.0885V38.7292C28.9635 38.8646 28.974 39.0104 28.9948 39.1562V39.5417H29.8438V29.5365H28.9948V31.7396ZM38.4427 29.5104L37.3594 29.5052L32.3646 36.125V25.7656H31.4479V39.5417H32.3646V37.5677L34.2083 35.1094C35.724 36.9219 36.875 38.3906 37.625 39.4688L37.6719 39.5417H38.8333L34.8177 34.3906L38.4427 29.5104ZM44.3281 30.151C45.4167 30.151 46.3854 30.5365 47.2135 31.2917C47.9948 32.0104 48.4688 32.8906 48.625 33.9062H39.8958C40.1406 32.8021 40.651 31.9063 41.4167 31.224C42.2188 30.5104 43.1979 30.151 44.3281 30.151ZM49.5573 34.5781C49.5365 33.151 49.0104 31.9063 47.9948 30.875C46.974 29.8385 45.7552 29.3125 44.3646 29.3125C42.9427 29.3125 41.6823 29.8177 40.6146 30.8177C39.5469 31.8177 39.0052 33.0104 39.0052 34.3698C39.0052 35.9375 39.5208 37.25 40.5365 38.276C41.5469 39.3073 42.8542 39.8281 44.4219 39.8281C45.4115 39.8281 46.3438 39.5312 47.1823 38.9479C48.0208 38.3646 48.6823 37.5677 49.1406 36.5833L49.25 36.3542H48.3802L48.3333 36.4271C47.6875 37.3698 47.0729 38.0208 46.5104 38.3594C45.8854 38.7344 45.0208 38.9271 43.9479 38.9271C43 38.9271 42.1146 38.5625 41.3177 37.8385C40.5208 37.1094 40.0521 36.25 39.9323 35.2865C39.9062 35.0573 39.8854 34.8802 39.875 34.7396H49.5573V34.5781ZM67.6302 34.5625C67.6302 35.8333 67.1927 36.8854 66.3177 37.6927C65.4427 38.5 64.3073 38.9115 62.9427 38.9115C61.8646 38.9115 60.901 38.4635 60.0833 37.5885C59.2604 36.7135 58.8438 35.6979 58.8438 34.5729C58.8438 33.3542 59.276 32.3021 60.1354 31.4323C60.9896 30.5677 62.0365 30.1302 63.2448 30.1302C64.4531 30.1302 65.5 30.5677 66.349 31.4323C67.2031 32.3021 67.6302 33.3542 67.6302 34.5625ZM63.2448 29.25C62.2604 29.25 61.3281 29.5156 60.4792 30.0312C59.8177 30.4427 59.2708 30.9688 58.849 31.6094L58.901 25.7188H57.9635V39.5208H58.8438V37.4427C59.2135 38.0365 59.7292 38.5469 60.3906 38.9688C61.2656 39.526 62.1875 39.8073 63.125 39.8073C64.5833 39.8073 65.8594 39.2969 66.9167 38.2917C67.974 37.2813 68.5104 36.0625 68.5104 34.6615C68.5104 33.1771 68 31.8854 66.9792 30.8385C65.9635 29.7813 64.7083 29.25 63.2448 29.25ZM74.4062 30.151C75.4948 30.151 76.4688 30.5365 77.2917 31.2917C78.0781 32.0104 78.5521 32.8906 78.7031 33.9062H69.974C70.224 32.8021 70.7344 31.9063 71.4948 31.224C72.3021 30.5104 73.2812 30.151 74.4062 30.151ZM79.6354 34.5781C79.6198 33.151 79.0938 31.9063 78.0729 30.875C77.0573 29.8385 75.8385 29.3125 74.4479 29.3125C73.026 29.3125 71.7656 29.8177 70.6979 30.8177C69.6302 31.8177 69.0833 33.0104 69.0833 34.3698C69.0833 35.9375 69.599 37.25 70.6146 38.276C71.6302 39.3073 72.9375 39.8281 74.5 39.8281C75.4948 39.8281 76.4219 39.5312 77.2656 38.9479C78.1042 38.3646 78.7604 37.5677 79.224 36.5833L79.3333 36.3542H78.4635L78.4115 36.4271C77.7708 37.3698 77.1562 38.0208 76.5938 38.3594C75.9688 38.7344 75.1042 38.9271 74.026 38.9271C73.0781 38.9271 72.1979 38.5625 71.401 37.8385C70.6042 37.1094 70.1354 36.25 70.0104 35.2865C69.9896 35.0573 69.9688 34.8802 69.9583 34.7396H79.6406L79.6354 34.5781ZM80.875 39.5208H81.75V25.7865H80.875V39.5208ZM83.2656 39.5208H84.1354V29.526H83.2656V39.5208ZM83.2656 27.7031H84.1354V25.8021H83.2656V27.7031ZM90.6771 30.151C91.7656 30.151 92.7344 30.5365 93.5625 31.2917C94.3438 32.0104 94.8177 32.8906 94.9688 33.9062H86.2448C86.4896 32.8021 87 31.9063 87.7656 31.224C88.5677 30.5104 89.5469 30.151 90.6771 30.151ZM95.901 34.5781C95.8854 33.151 95.3594 31.9063 94.3438 30.875C93.3229 29.8385 92.1042 29.3125 90.7135 29.3125C89.2917 29.3125 88.0312 29.8177 86.9635 30.8177C85.8958 31.8177 85.3542 33.0104 85.3542 34.3698C85.3542 35.9375 85.8698 37.25 86.8802 38.276C87.8958 39.3073 89.2031 39.8281 90.7708 39.8281C91.7604 39.8281 92.6875 39.5312 93.5312 38.9479C94.3698 38.3646 95.026 37.5677 95.4896 36.5833L95.599 36.3542H94.7292L94.6823 36.4271C94.0365 37.3698 93.4271 38.0208 92.8594 38.3594C92.2344 38.7344 91.375 38.9271 90.2969 38.9271C89.349 38.9271 88.4635 38.5625 87.6667 37.8385C86.8698 37.1094 86.401 36.25 86.2812 35.2865C86.2552 35.0573 86.2344 34.8802 86.224 34.7396H95.9062L95.901 34.5781ZM100.026 38.375L96.4583 29.4792H95.5052L99.5625 39.4844H100.458L104.604 29.5625L103.74 29.4688L100.026 38.375ZM110.25 30.151C111.339 30.151 112.313 30.5365 113.135 31.2917C113.917 32.0104 114.396 32.8906 114.547 33.9062H105.823C106.062 32.8073 106.573 31.9063 107.339 31.224C108.146 30.5104 109.125 30.151 110.25 30.151ZM114.255 36.4271C113.615 37.3698 113 38.0208 112.438 38.3594C111.807 38.7344 110.948 38.9271 109.87 38.9271C108.922 38.9271 108.042 38.5625 107.245 37.8385C106.448 37.1094 105.979 36.25 105.854 35.2865C105.833 35.0573 105.812 34.8802 105.797 34.7396H115.479V34.5781C115.464 33.151 114.938 31.9063 113.917 30.875C112.901 29.8385 111.677 29.3125 110.286 29.3125C108.87 29.3125 107.609 29.8177 106.542 30.8177C105.474 31.8177 104.932 33.0104 104.932 34.3698C104.932 35.9375 105.443 37.25 106.458 38.276C107.474 39.3073 108.781 39.8281 110.344 39.8281C111.333 39.8281 112.266 39.5312 113.109 38.9479C113.948 38.3646 114.604 37.5677 115.068 36.5833L115.177 36.3542H114.302L114.255 36.4271ZM54.7552 38.1458C54.7552 39.0729 54 39.8281 53.0729 39.8281C52.1458 39.8281 51.3906 39.0729 51.3906 38.1458C51.3906 37.2188 52.1458 36.4688 53.0729 36.4688C54 36.4688 54.7552 37.2188 54.7552 38.1458Z"/></symbol><symbol viewBox="0 0 34 51" id="svg-pants"><path d="M33.094,0.507c0.262,0 0.473,0.212 0.473,0.474v48.69c0,0.262 -0.211,0.475 -0.473,0.475h-12.984c-0.261,0 -0.473,-0.213 -0.473,-0.475v-3.915c-0.011,-0.038 -0.018,-0.079 -0.018,-0.121l-0.021,-32.504c0,-1.372 -1.116,-2.488 -2.488,-2.488c-1.372,0 -2.488,1.116 -2.488,2.488l-0.021,32.504c0,0.041 -0.007,0.082 -0.017,0.121v3.915c0,0.262 -0.212,0.475 -0.473,0.475h-12.985c-0.261,0 -0.474,-0.213 -0.474,-0.475v-48.69c0,-0.262 0.213,-0.474 0.474,-0.474zM32.621,23.781h-3.624v1.71h3.624zM28.997,33.065h3.624v-6.627h-3.624zM32.621,5.83h-2.344c0.201,1.198 1.146,2.143 2.344,2.344zM32.621,1.455h-3.623v3.429h3.623zM28.05,1.455h-1.157v3.944h1.157zM8.274,4.884h17.673v-3.429h-17.673zM7.327,1.455h-1.157v3.944h1.157zM5.224,1.455h-3.624v3.429h3.624zM1.599,33.065h3.624v-6.627h-3.624zM5.224,23.781h-3.624v1.71h3.624zM1.599,8.174c1.198,-0.201 2.143,-1.146 2.344,-2.344h-2.344zM17.11,9.696c1.894,0 3.434,1.541 3.434,3.435l0.021,32.03h12.056v-11.15h-4.098c-0.261,0 -0.473,-0.212 -0.473,-0.473v-10.23c0,-0.262 0.212,-0.473 0.473,-0.473h4.098v-13.702c-1.721,-0.214 -3.088,-1.582 -3.302,-3.303h-0.322v0.042c0,0.262 -0.212,0.474 -0.474,0.474h-2.104c-0.261,0 -0.472,-0.212 -0.472,-0.474v-0.042h-17.673v0.042c0,0.262 -0.212,0.474 -0.473,0.474h-2.104c-0.262,0 -0.473,-0.212 -0.473,-0.474v-0.042h-0.322c-0.215,1.721 -1.581,3.089 -3.303,3.303v13.702h4.098c0.261,0 0.473,0.211 0.473,0.473v10.23c0,0.261 -0.212,0.473 -0.473,0.473h-4.098v11.15h12.056l0.021,-32.031c0,-1.893 1.541,-3.434 3.434,-3.434zM13.637,46.109h-12.038v3.09h12.038zM32.621,46.109h-12.038v3.09h12.038z"/><g><path d="M17.1103,1.551c0.885,0 1.604,0.72 1.604,1.604c0,0.885 -0.719,1.604 -1.604,1.604c-0.885,0 -1.604,-0.719 -1.604,-1.604c0,-0.884 0.719,-1.604 1.604,-1.604zM17.1103,3.812c0.362,0 0.657,-0.294 0.657,-0.657c0,-0.363 -0.295,-0.657 -0.657,-0.657c-0.362,0 -0.658,0.294 -0.658,0.657c0,0.363 0.296,0.657 0.658,0.657z"/></g></symbol><symbol viewBox="0 0 28 62" id="svg-robe"><path d="M27.26,57.13c0.256,0 0.466,0.209 0.466,0.466v3.676c0,0.257 -0.21,0.467 -0.466,0.467h-11.869c-0.257,0 -0.466,-0.21 -0.466,-0.467v-3.676c0,-0.257 0.209,-0.466 0.466,-0.466h0.367l-0.027,-11.124c0,-0.807 -0.716,-1.464 -1.598,-1.464c-0.881,0 -1.598,0.656 -1.598,1.463l-0.027,11.125h0.367c0.257,0 0.466,0.209 0.466,0.466v3.676c0,0.257 -0.209,0.467 -0.466,0.467h-11.868c-0.257,0 -0.466,-0.21 -0.466,-0.467v-3.676c0,-0.257 0.209,-0.466 0.466,-0.466h0.372l0.001,-18.626l2.025,-22.166v-14.958c0,-0.257 0.209,-0.466 0.466,-0.466h2.752c0.257,0 0.466,0.209 0.466,0.466v14.502h14.088v-14.502c0,-0.257 0.209,-0.466 0.466,-0.466h2.752c0.257,0 0.466,0.209 0.466,0.466v14.966l2.024,22.116c0.003,0.021 0.005,0.047 0.005,0.074l-0.003,0.03v18.564zM4.649,11.146c0.147,-0.186 0.366,-0.292 0.598,-0.292c0.232,0 0.451,0.106 0.599,0.292l0.007,0.009h0.304v-1.825h-1.82v1.825h0.304zM4.337,8.398h1.82v-6.552h-1.82zM5.846,12.097c-0.148,0.186 -0.367,0.292 -0.599,0.292c-0.232,0 -0.451,-0.106 -0.598,-0.292l-0.008,-0.01h-0.304v3.795h1.82v-3.795h-0.304zM22.42,11.146c0.149,-0.186 0.367,-0.292 0.599,-0.292c0.233,0 0.45,0.106 0.598,0.292l0.008,0.009h0.304v-1.825h-1.82v1.825h0.304zM22.109,8.398h1.819v-6.552h-1.819zM23.617,12.097c-0.147,0.186 -0.365,0.292 -0.598,0.292c-0.232,0 -0.45,-0.106 -0.599,-0.292l-0.007,-0.01h-0.304v3.795h1.82v-3.795h-0.304zM21.603,36.348c0.257,0 0.466,0.21 0.466,0.466v1.255h3.863l-1.982,-21.255h-19.634l-1.982,21.255h3.863v-1.255c0,-0.256 0.21,-0.466 0.467,-0.466h1.584c0.257,0 0.466,0.21 0.466,0.466v1.255h10.838v-1.255c0,-0.256 0.21,-0.466 0.466,-0.466zM4.822,39.001h-2.511v2.511l0.03,-0.005c1.27,-0.211 2.265,-1.206 2.476,-2.477zM7.13,39.79h0.652v-2.509h-0.652zM11.602,46.003c0,-1.319 1.136,-2.392 2.531,-2.392c1.396,0 2.531,1.074 2.531,2.394l0.027,11.125h9.264v-14.675l-0.022,-0.003c-1.797,-0.222 -3.207,-1.632 -3.43,-3.428l-0.002,-0.023h-0.432v1.254c0,0.258 -0.209,0.467 -0.466,0.467h-1.585c-0.256,0 -0.466,-0.209 -0.466,-0.467v-1.254h-10.838v1.254c0,0.258 -0.209,0.467 -0.466,0.467h-1.584c-0.257,0 -0.467,-0.209 -0.467,-0.467v-1.254h-0.431l-0.003,0.023c-0.223,1.796 -1.633,3.206 -3.429,3.428l-0.023,0.003v14.675h9.265zM20.485,39.79h0.652v-2.509h-0.652zM23.449,39.031c0.211,1.27 1.206,2.265 2.476,2.476l0.03,0.005v-2.511h-2.511zM12.409,58.062h-10.936v2.744h10.936zM26.793,58.062h-10.937v2.744h10.937z"/><g><path d="M23.038,31.476c0,0.257 -0.209,0.466 -0.466,0.466h-16.878c-0.257,0 -0.466,-0.209 -0.466,-0.466v-11.006c0,-0.257 0.209,-0.467 0.466,-0.467h16.878c0.257,0 0.466,0.21 0.466,0.467zM6.16,31.01h8.899v-10.074h-8.899zM15.992,24.346h6.114v-3.41h-6.114zM15.992,31.01h6.114v-5.732h-6.114z"/></g></symbol><symbol viewBox="0 0 30 35" id="svg-shoes"><path d="M7.3032,0.5745c0.138,0 0.269,0.052 0.361,0.144c0.254,0.254 6.218,6.26 6.234,9.792c0.007,1.771 -0.392,3.49 -0.744,5.007c-0.265,1.144 -0.516,2.226 -0.522,3.076c-0.01,1.369 0.111,4.4 0.214,6.709c0.019,0.054 0.028,0.109 0.028,0.163c0,0.099 -0.003,0.196 -0.007,0.293c0.038,0.835 0.069,1.458 0.078,1.643l0.002,0.058c0.001,0.007 0.001,0.016 0.001,0.024c0,1.814 -0.503,3.453 -1.416,4.618c-1.015,1.293 -2.477,1.977 -4.229,1.977c-1.751,0 -3.214,-0.684 -4.228,-1.977c-0.913,-1.165 -1.416,-2.804 -1.416,-4.618v-0.022c0.002,-0.024 0.036,-0.714 0.081,-1.714c-0.005,-0.086 -0.007,-0.183 -0.007,-0.282c0,-0.054 0.009,-0.109 0.027,-0.163c0.104,-2.308 0.224,-5.338 0.215,-6.709c-0.006,-0.902 -0.28,-2.151 -0.569,-3.473c-0.347,-1.58 -0.704,-3.214 -0.697,-4.61c0.019,-3.53 5.98,-9.537 6.234,-9.792c0.092,-0.092 0.224,-0.144 0.36,-0.144zM7.3032,33.0595c3.412,0 4.302,-2.891 4.533,-4.361c-1.04,1.454 -2.733,2.338 -4.533,2.338c-1.799,0 -3.492,-0.884 -4.532,-2.338c0.231,1.47 1.121,4.361 4.532,4.361zM11.8462,25.7415c-0.091,-2.017 -0.244,-5.625 -0.233,-7.155c0.007,-0.963 0.27,-2.098 0.549,-3.3c0.244,-1.049 0.519,-2.236 0.645,-3.432l-5.504,-4.247l-5.483,4.232c0.124,0.977 0.356,2.037 0.581,3.063c0.301,1.376 0.586,2.676 0.593,3.684c0.011,1.529 -0.142,5.136 -0.234,7.155c0.144,2.399 2.138,4.277 4.543,4.277c2.405,0 4.399,-1.878 4.543,-4.277zM6.9922,6.5615c0.089,-0.068 0.199,-0.106 0.311,-0.106c0.112,0 0.223,0.038 0.312,0.106l5.264,4.061c0,-0.035 0,-0.071 0,-0.107c-0.011,-2.684 -4.464,-7.535 -5.576,-8.704c-1.11,1.17 -5.561,6.023 -5.575,8.704c0,0.036 0,0.072 0.001,0.107z"/><path d="M8.137,20.152c0.281,0 0.509,0.228 0.509,0.509v6.137c0,0.281 -0.228,0.51 -0.509,0.51h-1.667c-0.281,0 -0.509,-0.229 -0.509,-0.51v-6.137c0,-0.281 0.228,-0.509 0.509,-0.509zM7.627,21.17h-0.648v5.119h0.648z"/><g><path d="M29.3378,15.1205c-0.29,1.322 -0.563,2.571 -0.569,3.473c-0.01,1.369 0.111,4.4 0.214,6.709c0.019,0.054 0.028,0.109 0.028,0.163c0,0.099 -0.003,0.196 -0.008,0.293c0.046,0.989 0.08,1.679 0.082,1.699v0.026c0,1.814 -0.503,3.453 -1.417,4.618c-1.014,1.293 -2.476,1.977 -4.228,1.977c-1.752,0 -3.214,-0.684 -4.229,-1.977c-0.913,-1.165 -1.416,-2.804 -1.416,-4.618c0,-0.008 0,-0.017 0.001,-0.025c0.004,-0.076 0.037,-0.75 0.081,-1.711c-0.005,-0.085 -0.008,-0.183 -0.008,-0.282c0,-0.054 0.01,-0.109 0.028,-0.163c0.103,-2.309 0.224,-5.34 0.215,-6.709c-0.006,-0.851 -0.257,-1.932 -0.523,-3.076c-0.352,-1.517 -0.751,-3.238 -0.743,-5.007c0.015,-3.532 5.98,-9.538 6.234,-9.792c0.092,-0.092 0.223,-0.144 0.36,-0.144c0.137,0 0.268,0.052 0.36,0.144c0.254,0.255 6.216,6.262 6.234,9.792c0.007,1.396 -0.35,3.03 -0.696,4.61zM23.4398,33.0595c3.411,0 4.302,-2.891 4.533,-4.361c-1.041,1.454 -2.733,2.338 -4.533,2.338c-1.799,0 -3.492,-0.884 -4.533,-2.338c0.231,1.47 1.122,4.361 4.533,4.361zM27.9828,25.7415c-0.092,-2.019 -0.244,-5.626 -0.233,-7.155c0.007,-1.008 0.291,-2.308 0.593,-3.684c0.224,-1.026 0.456,-2.086 0.581,-3.063l-5.484,-4.232l-5.504,4.247c0.127,1.197 0.402,2.383 0.646,3.432c0.278,1.202 0.541,2.338 0.548,3.3c0.011,1.526 -0.141,5.135 -0.233,7.155c0.144,2.399 2.138,4.277 4.543,4.277c2.405,0 4.4,-1.878 4.543,-4.277zM23.1288,6.5615c0.177,-0.136 0.444,-0.136 0.622,0l5.264,4.061c0.001,-0.035 0.001,-0.071 0.001,-0.107c-0.014,-2.681 -4.465,-7.534 -5.576,-8.704c-1.112,1.169 -5.564,6.02 -5.575,8.704c-0.001,0.036 -0.001,0.072 0,0.107z"/></g><g><path d="M24.273,20.152c0.281,0 0.51,0.228 0.51,0.509v6.137c0,0.281 -0.229,0.51 -0.51,0.51h-1.666c-0.282,0 -0.51,-0.229 -0.51,-0.51v-6.137c0,-0.281 0.228,-0.509 0.51,-0.509zM23.763,21.17h-0.647v5.119h0.647z"/></g></symbol><symbol viewBox="0 0 13 65" id="svg-watch"><path d="M10.4889,60.5426c0,2.132 -1.735,3.867 -3.867,3.867c-2.133,0 -3.867,-1.735 -3.867,-3.867v-3.146c0,-0.06 -0.048,-0.107 -0.107,-0.107h-0.232c-0.27,0 -0.489,-0.22 -0.489,-0.49c0,-0.27 0.219,-0.489 0.489,-0.489h0.232c0.059,0 0.107,-0.047 0.107,-0.107v-18.91c0,-0.034 0.001,-0.068 0.002,-0.103l0.001,-0.03c0.002,-0.032 -0.013,-0.064 -0.038,-0.086c-1.428,-1.175 -2.247,-2.906 -2.247,-4.748c0,-1.842 0.819,-3.573 2.247,-4.748c0.025,-0.021 0.039,-0.051 0.039,-0.083c0,-0.001 0,-0.002 -0.001,-0.004l-0.001,-0.029c-0.001,-0.034 -0.002,-0.069 -0.002,-0.103v-18.977c0,-0.058 -0.048,-0.106 -0.107,-0.106h-1.027c-0.269,0 -0.489,-0.22 -0.489,-0.49c0,-0.269 0.22,-0.489 0.489,-0.489h1.027c0.059,0 0.107,-0.048 0.107,-0.107v-3.08c0,-2.132 1.734,-3.867 3.867,-3.867c2.132,0 3.867,1.735 3.867,3.867v3.08c0,0.059 0.048,0.107 0.107,0.107h1.027c0.269,0 0.489,0.22 0.489,0.489c0,0.27 -0.22,0.49 -0.489,0.49h-1.027c-0.059,0 -0.107,0.048 -0.107,0.106v18.977c0,0.034 -0.001,0.069 -0.003,0.103l-0.001,0.029c-0.003,0.037 0.014,0.066 0.039,0.087c1.428,1.175 2.246,2.906 2.246,4.748c0,1.842 -0.818,3.572 -2.246,4.748c-0.025,0.022 -0.043,0.055 -0.039,0.086l0.001,0.03c0.002,0.035 0.003,0.069 0.003,0.103v18.91c0,0.06 0.048,0.107 0.107,0.107h0.232c0.27,0 0.489,0.219 0.489,0.489c0,0.27 -0.219,0.49 -0.489,0.49h-0.232c-0.059,0 -0.107,0.047 -0.107,0.107zM9.4039,7.2976c0.059,0 0.106,-0.048 0.106,-0.107v-3.08c0,-1.592 -1.295,-2.888 -2.888,-2.888c-1.593,0 -2.889,1.296 -2.889,2.888v3.08c0,0.059 0.048,0.107 0.107,0.107zM3.8869,26.8216c0.857,-0.427 1.777,-0.644 2.735,-0.644c0.957,0 1.878,0.217 2.735,0.644c0.032,0.016 0.072,0.014 0.103,-0.005c0.031,-0.019 0.05,-0.054 0.05,-0.091v-18.343c0,-0.058 -0.047,-0.106 -0.106,-0.106h-5.564c-0.059,0 -0.107,0.048 -0.107,0.106v18.343c0,0.037 0.02,0.072 0.051,0.091c0.031,0.019 0.07,0.021 0.103,0.005zM1.4519,32.3266c0,2.85 2.319,5.17 5.17,5.17c2.851,0 5.17,-2.32 5.17,-5.17c0,-2.851 -2.319,-5.17 -5.17,-5.17c-2.851,0 -5.17,2.319 -5.17,5.17zM9.4039,56.3106c0.059,0 0.106,-0.047 0.106,-0.107v-18.276c0,-0.037 -0.019,-0.072 -0.05,-0.091c-0.031,-0.019 -0.071,-0.021 -0.103,-0.005c-0.857,0.427 -1.777,0.644 -2.735,0.644c-0.958,0 -1.878,-0.217 -2.735,-0.644c-0.033,-0.016 -0.072,-0.014 -0.103,0.005c-0.031,0.019 -0.051,0.054 -0.051,0.091v18.276c0,0.06 0.048,0.107 0.107,0.107h2.185c0.059,0 0.108,-0.047 0.108,-0.107v-2.45c0,-0.27 0.219,-0.49 0.489,-0.49c0.27,0 0.489,0.22 0.489,0.49v2.45c0,0.06 0.048,0.107 0.107,0.107zM3.7329,60.5426c0,1.593 1.296,2.888 2.889,2.888c1.593,0 2.888,-1.295 2.888,-2.888v-3.146c0,-0.06 -0.047,-0.107 -0.106,-0.107h-5.564c-0.059,0 -0.107,0.047 -0.107,0.107z"/><path d="M7.277,11.3633c0,-0.361 -0.294,-0.655 -0.655,-0.655c-0.361,0 -0.655,0.294 -0.655,0.655c0,0.361 0.294,0.655 0.655,0.655c0.361,0 0.655,-0.294 0.655,-0.655z"/><path d="M7.277,14.9729c0,-0.361 -0.294,-0.655 -0.655,-0.655c-0.361,0 -0.655,0.294 -0.655,0.655c0,0.361 0.294,0.655 0.655,0.655c0.361,0 0.655,-0.294 0.655,-0.655z"/><g><path d="M7.2568,18.7438c0.089,-0.35 -0.124,-0.707 -0.474,-0.796c-0.35,-0.089 -0.707,0.124 -0.796,0.474c-0.089,0.35 0.124,0.707 0.474,0.796c0.35,0.089 0.708,-0.124 0.796,-0.474z"/></g><g><path d="M6.9668,33.1699c0.022,-0.022 0.043,-0.047 0.062,-0.076c0.003,-0.003 0.006,-0.009 0.008,-0.015l0.018,-0.032c0.006,-0.012 0.014,-0.023 0.018,-0.036c0.005,-0.01 0.007,-0.02 0.01,-0.029l0.012,-0.041c0.003,-0.008 0.005,-0.014 0.006,-0.021c0.007,-0.033 0.01,-0.066 0.01,-0.097v-3.377c0,-0.27 -0.219,-0.49 -0.489,-0.49c-0.27,0 -0.489,0.22 -0.489,0.49v3.131c0,0.028 -0.012,0.055 -0.032,0.075l-1.564,1.564c-0.092,0.092 -0.143,0.216 -0.143,0.346c0,0.131 0.051,0.254 0.143,0.346c0.093,0.093 0.216,0.144 0.346,0.144c0.131,0 0.254,-0.051 0.346,-0.144z"/></g></symbol></svg>